<?xml version="1.0" encoding="UTF-8"?><svg id="_2" xmlns="http://www.w3.org/2000/svg" viewBox="0 0 118 118"><defs><style>.cls-1{fill:#fff;}</style></defs><path class="cls-1" d="M118,59c0-8.6-5.1-16-12.41-19.3,2.84-7.5,1.21-16.34-4.87-22.42-6.08-6.08-14.91-7.71-22.42-4.87-3.3-7.31-10.7-12.41-19.3-12.41s-16,5.1-19.3,12.41c-7.5-2.84-16.33-1.21-22.41,4.87s-7.72,14.92-4.87,22.42C5.1,43,0,50.4,0,59s5.1,16,12.41,19.3c-2.84,7.5-1.21,16.34,4.87,22.42,6.08,6.08,14.92,7.71,22.42,4.87,3.3,7.31,10.7,12.41,19.3,12.41s16.01-5.1,19.3-12.41c7.5,2.84,16.34,1.21,22.42-4.87,6.08-6.08,7.72-14.91,4.87-22.42,7.31-3.29,12.41-10.69,12.41-19.3ZM57.28,28.94c.4-.36.78-.73,1.16-1.12.39.36.8.72,1.21,1.07,2.92,2.69,2.15,5.36-.15,11.23-.18.47-.44,1.08-.76,1.82-.34-.72-.63-1.33-.83-1.79-2.55-5.76-3.44-8.4-.63-11.2ZM36.44,37.48c.54-.02,1.07-.05,1.61-.1,3.97-.17,5.31,2.27,7.82,8.04.2.46.46,1.08.75,1.82-.76-.26-1.39-.49-1.85-.67-5.87-2.27-8.37-3.51-8.37-7.48.02-.54.04-1.08.04-1.62ZM28.94,60.72c-.36-.4-.73-.79-1.11-1.16.36-.4.71-.8,1.07-1.22,2.69-2.92,5.36-2.15,11.22.16.47.18,1.08.44,1.81.76-.71.35-1.32.62-1.78.83-5.76,2.55-8.4,3.43-11.2.63ZM46.58,73.24c-2.28,5.87-3.52,8.37-7.49,8.36-.54-.02-1.08-.04-1.61-.04-.02-.53-.05-1.07-.1-1.6-.17-3.97,2.27-5.31,8.04-7.82.46-.2,1.08-.46,1.83-.76-.26.76-.49,1.39-.67,1.86ZM60.72,89.06c-.4.36-.78.73-1.16,1.12-.39-.36-.8-.72-1.22-1.07-2.92-2.69-2.15-5.36.15-11.23.18-.46.44-1.09.76-1.82.35.72.63,1.33.83,1.8,2.55,5.76,3.44,8.4.63,11.2ZM59,66.68c-4.24,0-7.68-3.44-7.68-7.68s3.44-7.68,7.68-7.68,7.68,3.44,7.68,7.68-3.44,7.68-7.68,7.68ZM71.42,44.77c2.28-5.88,3.52-8.37,7.48-8.37.54.02,1.08.04,1.62.04.01.54.05,1.07.1,1.61.17,3.96-2.27,5.31-8.04,7.82-.46.21-1.08.46-1.82.75.26-.76.49-1.38.67-1.85ZM81.57,80.52c-.53.02-1.07.05-1.61.1-3.97.17-5.31-2.27-7.82-8.05-.2-.46-.46-1.09-.76-1.83.76.26,1.39.49,1.85.68,5.88,2.27,8.37,3.51,8.37,7.48-.02.54-.04,1.08-.04,1.62ZM89.11,59.65c-2.69,2.92-5.36,2.15-11.22-.16-.47-.18-1.09-.44-1.82-.76.72-.35,1.33-.63,1.79-.83,5.75-2.55,8.4-3.43,11.2-.63.36.4.73.79,1.12,1.16-.36.4-.71.8-1.07,1.22Z"/></svg>